<svg xmlns="http://www.w3.org/2000/svg" width="150" height="50" viewBox="0,0,150,50"><path fill="#222" d="M120.37 29.14L120.46 29.22L120.50 29.27Q118.48 29.12 117.27 30.45L117.38 30.56L117.43 30.61Q116.06 31.80 115.91 33.70L115.91 33.70L116.07 33.85Q115.74 35.85 116.96 36.86L116.96 36.86L116.91 36.81Q118.15 37.84 120.28 37.77L120.29 37.77L120.36 37.85Q122.61 37.62 123.56 36.67L123.53 36.63L123.60 36.71Q124.69 35.32 124.57 33.49L124.59 33.51L124.58 33.50Q124.43 31.60 123.35 30.40L123.29 30.34L123.32 30.37Q122.29 29.23 120.46 29.23ZM120.48 19.84L120.29 19.66L120.46 19.82Q119.07 19.73 117.73 20.22L117.62 20.11L117.72 20.20Q116.27 20.85 116.50 22.72L116.59 22.80L116.59 22.80Q117.10 26.55 120.45 26.55L120.51 26.61L120.36 26.46Q121.89 26.62 122.88 25.48L123.06 25.66L123.06 25.66Q123.90 24.37 123.94 22.81L123.95 22.81L123.95 22.82Q124.12 21.17 123.40 20.56L123.44 20.60L123.37 20.53Q121.73 19.72 120.43 19.80ZM120.07 40.26L120.08 40.27L117.00 40.23L117.04 40.28Q115.50 40.26 114.17 39.38L114.16 39.37L114.14 39.35Q112.92 38.36 113.07 35.50L112.93 35.36L113.03 35.47Q113.54 28.66 117.16 27.67L117.10 27.62L116.98 27.50Q114.85 26.74 113.52 21.37L113.44 21.29L113.38 21.23Q113.08 19.87 113.16 19.07L113.26 19.17L113.19 19.10Q113.46 16.94 117.15 16.90L117.10 16.84L117.10 16.84Q121.33 16.77 122.78 16.96L122.80 16.98L122.86 17.04Q126.76 17.64 127.22 19.66L127.23 19.67L127.11 19.54Q127.26 20.19 127.26 20.57L127.20 20.51L127.34 20.65Q127.27 21.26 127.08 21.87L127.00 21.80L127.06 21.86Q126.45 26.08 123.52 27.60L123.59 27.67L123.56 27.64Q127.12 28.50 127.61 33.79L127.49 33.67L127.63 33.80Q127.56 33.89 127.60 35.19L127.67 35.26L127.56 35.14Q127.57 37.82 125.97 38.88L126.09 39.01L126.07 38.99Q124.66 39.83 120.10 40.28ZM122.37 42.60L122.33 42.55L125.72 42.67L125.68 42.63Q127.47 42.78 128.99 42.06L128.97 42.04L129.04 42.11Q130.06 41.27 130.14 39.40L130.25 39.51L130.21 39.47Q130.25 38.37 129.87 36.43L129.90 36.46L129.85 36.41Q129.05 31.88 126.95 30.01L126.81 29.87L126.71 29.57L126.50 29.29L126.40 29.08L126.32 29.00Q127.86 27.53 128.78 23.38L128.83 23.43L128.93 23.53Q128.88 23.11 128.96 22.27L129.01 22.33L128.88 22.19Q129.05 21.60 128.97 20.99L128.98 21.00L128.88 20.89Q128.75 19.47 127.57 18.98L127.52 18.93L127.69 19.06L127.45 18.90L127.52 18.97Q127.20 18.19 126.02 17.39L126.06 17.43L126.15 17.48L126.13 17.46Q124.13 16.75 120.06 16.56L120.06 16.57L119.98 16.49Q118.34 16.30 116.97 16.41L117.03 16.47L117.02 16.46Q116.25 16.53 114.95 16.68L115.04 16.77L114.90 16.63Q113.01 17.06 112.79 18.70L112.72 18.63L112.77 18.68Q112.83 19.27 112.87 20.07L112.82 20.03L112.81 20.01Q112.83 20.46 113.40 22.82L113.51 22.93L113.48 22.90Q114.35 26.20 116.10 27.53L115.98 27.41L116.15 27.58L116.09 27.52Q113.41 28.91 112.88 34.09L112.72 33.93L112.79 34.00Q112.69 36.30 112.69 37.21L112.57 37.09L112.64 37.17Q112.64 38.88 113.82 39.80L113.82 39.79L113.95 39.92Q114.04 39.98 114.31 40.17L114.16 40.02L114.19 40.05Q115.32 42.43 122.44 42.66ZM122.00 31.49L121.98 31.47L122.12 31.61Q122.99 31.49 123.87 31.95L123.76 31.85L123.82 31.91Q124.21 32.90 124.17 33.43L124.19 33.45L124.18 33.44Q124.27 33.80 124.27 34.10L124.23 34.07L124.25 34.08Q124.22 36.41 121.94 37.25L121.92 37.23L122.03 37.35Q121.24 37.66 120.44 37.55L120.29 37.39L120.38 37.48Q119.16 37.48 118.01 37.02L118.19 37.19L118.10 37.11Q117.87 36.50 117.95 35.51L117.90 35.46L117.95 35.51Q118.04 33.85 119.24 32.63L119.20 32.59L119.34 32.73Q120.50 31.48 122.10 31.59ZM122.36 22.14L122.35 22.13L122.33 22.11Q123.12 21.99 123.65 22.14L123.54 22.03L123.52 22.81L123.68 22.97Q123.65 24.34 122.73 25.35L122.74 25.36L122.80 25.42Q121.76 26.30 120.39 26.11L120.41 26.13L120.41 26.13Q119.41 26.12 118.99 25.89L118.99 25.90L119.05 25.95Q119.06 25.73 118.94 25.05L118.84 24.94L118.81 24.91Q118.69 23.65 119.91 22.81L119.88 22.79L119.83 22.73Q120.97 22.12 122.38 22.16Z"/><path fill="#222" d="M30.29 40.29L30.37 40.37L30.43 40.43Q27.45 36.54 24.82 27.89L24.81 27.89L24.81 27.89Q24.17 25.75 23.37 23.62L23.23 23.49L20.45 32.36L20.42 32.32Q18.69 37.33 16.29 40.57L16.14 40.42L16.26 40.54Q15.42 40.61 13.79 40.77L13.68 40.66L13.71 40.69Q13.93 39.62 13.93 38.36L13.77 38.21L13.92 38.35Q13.85 32.26 11.11 26.13L11.17 26.20L11.06 26.08Q8.09 19.35 2.23 14.36L2.13 14.27L2.06 14.20Q4.26 14.95 6.62 15.48L6.58 15.44L6.70 15.56Q15.33 23.96 16.62 34.92L16.63 34.93L16.57 34.87Q18.13 31.49 19.58 26.12L19.62 26.16L19.70 26.24Q21.67 18.73 22.17 17.33L22.10 17.25L24.46 17.37L24.50 17.41Q25.14 19.38 25.79 21.70L25.74 21.66L27.02 26.13L27.01 26.13Q28.53 31.53 29.94 34.77L29.92 34.75L30.04 34.86Q31.57 23.11 39.49 15.76L39.48 15.75L39.47 15.74Q41.01 15.42 43.98 14.77L43.97 14.76L43.98 14.77Q38.76 19.18 35.72 25.31L35.75 25.35L35.75 25.35Q32.59 31.52 32.59 38.29L32.54 38.24L32.54 38.24Q32.61 39.41 32.68 40.55L32.70 40.57L31.61 40.51L31.57 40.47Q30.98 40.42 30.41 40.42ZM36.52 43.17L36.61 43.26L36.56 43.21Q35.34 39.67 35.46 35.79L35.46 35.79L35.49 35.82Q35.87 24.32 45.23 16.06L45.21 16.04L45.18 16.01Q44.29 16.30 42.34 16.83L42.22 16.71L42.37 16.86Q43.18 15.87 45.08 14.09L45.12 14.12L45.24 14.24Q42.49 14.92 39.56 15.41L39.64 15.50L39.57 15.42Q32.02 22.50 30.12 31.98L30.16 32.01L30.22 32.08Q29.54 30.33 26.69 18.87L26.65 18.84L26.71 18.90Q26.29 18.97 25.34 18.97L25.28 18.91L25.05 17.92L25.11 17.98Q24.99 17.45 24.76 16.95L24.62 16.81L21.84 16.92L21.75 16.83Q21.00 19.35 19.72 24.47L19.61 24.36L19.67 24.41Q18.38 29.53 17.39 32.00L17.49 32.10L17.49 32.09Q15.81 24.10 10.25 17.78L10.34 17.86L10.36 17.89Q9.84 17.78 8.89 17.59L8.85 17.56L8.86 17.57Q8.20 16.80 6.64 15.16L6.57 15.09L6.51 15.03Q3.29 14.40 1.12 13.60L0.99 13.47L1.00 13.48Q6.68 18.17 9.95 24.37L9.97 24.39L9.99 24.41Q13.50 31.08 13.50 38.09L13.45 38.03L13.47 38.05Q13.38 39.53 13.19 41.13L13.28 41.21L13.31 41.25Q13.52 41.22 13.98 41.13L13.99 41.14L13.91 41.06Q14.31 40.91 14.54 40.91L14.53 40.90L14.67 42.07L14.69 42.09Q14.67 42.52 14.74 43.06L14.75 43.06L14.73 43.05Q15.87 42.96 18.15 42.81L18.17 42.83L18.17 42.82Q21.82 37.45 24.56 28.05L24.44 27.94L24.54 28.03Q27.28 36.79 30.25 40.74L30.15 40.64L30.20 40.70Q30.80 40.85 31.64 40.96L31.49 40.81L31.48 40.79Q32.35 41.86 33.42 42.93L33.40 42.91L33.55 43.06Q34.23 43.01 36.63 43.28Z"/><path fill="#222" d="M42.59 33.05L42.49 32.95L42.42 32.88Q45.58 32.57 48.77 32.68L48.84 32.75L48.75 32.66Q48.65 30.04 48.65 27.65L48.65 27.64L48.72 27.72Q48.66 25.18 48.85 22.63L48.97 22.75L48.99 22.78Q47.74 24.45 42.52 32.98ZM52.35 40.25L52.40 40.31L52.30 40.20Q50.80 40.08 49.01 40.00L48.87 39.86L48.98 39.97Q48.69 37.51 48.58 35.03L48.68 35.14L48.70 35.16Q43.28 34.88 38.56 36.28L38.64 36.37L38.62 36.35Q38.77 35.89 38.96 34.90L38.81 34.75L38.90 34.84Q40.71 31.70 44.29 25.42L44.33 25.46L44.23 25.36Q47.08 20.44 50.50 16.56L50.62 16.67L50.67 16.72Q51.51 16.50 53.18 16.23L53.04 16.09L53.18 16.23Q51.29 22.67 51.29 29.71L51.25 29.67L51.13 29.55Q51.25 31.16 51.33 32.65L51.36 32.68L52.60 32.74L52.51 32.65Q53.19 32.76 53.80 32.87L53.87 32.94L53.84 32.92Q53.86 33.81 54.13 35.76L54.10 35.72L54.20 35.83Q52.89 35.47 51.41 35.28L51.43 35.30L51.46 35.33Q51.78 37.44 52.47 40.37ZM54.08 32.51L54.04 32.46L54.04 32.47Q53.83 32.38 53.64 32.38L53.63 32.36L53.35 32.46L53.38 32.50Q53.18 30.93 53.18 29.52L53.22 29.56L53.19 29.52Q53.22 23.16 55.27 17.14L55.30 17.17L55.22 17.08Q54.53 17.43 53.08 17.81L53.02 17.74L53.06 17.78Q53.36 17.09 53.81 15.68L53.77 15.64L53.71 15.58Q52.51 16.06 50.46 16.28L50.48 16.30L50.44 16.27Q46.50 20.59 41.29 29.96L41.30 29.97L43.29 26.21L43.43 26.35Q42.97 27.34 42.71 27.91L42.64 27.84L38.29 36.97L38.10 36.78Q38.92 36.80 40.06 36.42L39.99 36.35L39.84 36.58L39.91 36.65Q39.75 37.29 39.45 38.54L39.35 38.45L39.34 38.43Q43.49 37.14 48.32 37.33L48.38 37.39L48.34 37.35Q48.49 38.41 48.68 40.39L48.61 40.33L48.61 40.33Q49.61 40.26 50.68 40.37L50.81 40.50L50.70 40.40Q50.86 41.09 51.12 42.46L51.09 42.42L51.07 42.40Q53.08 42.74 56.09 43.65L56.15 43.71L56.12 43.69Q55.06 41.48 54.14 38.20L54.16 38.22L55.58 38.65L55.64 38.71Q56.38 38.99 57.06 39.33L56.87 39.14L57.03 39.30Q56.20 36.75 56.04 35.08L56.04 35.08L55.97 35.01Q55.54 35.00 54.40 34.77L54.35 34.71L54.28 34.64Q53.98 33.28 53.98 32.41ZM46.03 32.30L46.08 32.34L46.04 32.31Q46.90 31.11 48.46 28.56L48.43 28.53L48.41 28.51Q48.39 29.44 48.35 30.39L48.30 30.34L48.43 30.48Q48.34 31.37 48.38 32.32L48.49 32.44L48.40 32.34Q47.84 32.32 47.27 32.32L47.23 32.28L47.27 32.32Q46.74 32.40 46.13 32.40Z"/><path fill="#333" d="M71.86 41.31L71.87 41.31L71.89 41.33Q69.10 41.59 67.84 41.06L67.80 41.01L67.70 40.91Q65.86 40.22 65.94 37.75L66.00 37.80L65.99 37.80Q66.08 34.35 66.08 34.92L65.99 34.83L66.00 34.83Q66.13 29.63 63.27 24.80L63.17 24.69L63.29 24.82Q65.14 25.64 67.12 26.02L67.25 26.15L67.12 26.02Q68.90 30.69 68.79 35.18L68.69 35.09L68.77 35.17Q68.58 36.62 69.42 37.84L69.46 37.88L69.44 37.86Q70.35 39.18 71.87 38.99L71.85 38.97L72.18 38.81L72.24 38.86Q73.62 38.84 74.44 38.08L74.44 38.08L74.41 38.05Q75.28 37.34 75.28 36.39L75.20 36.31L75.27 36.38Q75.27 36.15 75.23 35.96L75.17 35.89L75.26 35.99Q75.07 30.62 76.21 26.28L76.25 26.32L76.17 26.24Q77.36 26.32 78.35 26.09L78.31 26.06L80.29 25.52L80.32 25.55Q77.82 30.63 78.12 36.18L78.03 36.09L77.99 36.05Q78.27 39.23 76.56 40.37L76.58 40.39L76.51 40.32Q75.20 41.18 71.89 41.34ZM74.32 43.84L74.20 43.72L74.30 43.83Q77.72 43.93 79.55 43.17L79.53 43.15L79.48 43.10Q80.38 42.32 80.38 40.92L80.46 41.00L80.47 41.01Q80.44 40.06 80.17 38.50L80.20 38.53L80.10 38.42Q79.64 35.30 80.02 32.30L80.13 32.40L80.08 32.36Q80.44 29.18 81.85 26.44L81.91 26.50L81.94 26.52Q81.22 26.76 79.89 27.18L79.94 27.22L79.91 27.19Q80.15 26.60 80.45 26.03L80.51 26.08L80.95 24.81L80.93 24.79Q79.10 25.55 75.94 26.05L75.93 26.04L75.87 25.97Q74.74 30.86 74.89 35.96L74.83 35.90L74.84 35.91Q74.89 37.97 72.22 38.47L72.17 38.42L71.85 38.56L71.68 38.53L70.82 38.47L70.86 38.52Q70.79 37.65 70.83 37.15L70.65 36.97L70.80 37.13Q70.91 32.51 70.22 28.10L70.17 28.04L69.14 27.93L69.18 27.97Q68.61 27.89 68.07 27.77L68.25 27.95L68.18 27.88Q67.80 26.47 67.53 25.71L67.53 25.71L67.58 25.75Q64.76 25.30 62.52 24.00L62.51 24.00L62.38 23.87Q64.66 27.52 65.38 30.90L65.32 30.85L65.40 30.92Q65.89 33.12 65.73 36.62L65.61 36.50L65.73 36.62Q65.70 36.70 65.62 37.81L65.71 37.90L65.73 37.92Q65.44 40.14 66.81 41.09L66.83 41.11L66.94 41.22Q67.32 43.47 74.33 43.85Z"/><path fill="#333" d="M98.16 32.13L88.94 22.15L88.97 22.18Q89.68 25.74 89.68 29.47L89.80 29.59L89.86 29.65Q89.86 35.63 87.81 41.19L87.66 41.04L87.64 41.02Q86.56 41.27 84.31 42.03L84.44 42.17L84.43 42.15Q87.14 36.26 87.14 29.56L87.16 29.58L87.29 29.70Q87.13 20.90 82.64 13.48L82.76 13.61L82.70 13.54Q83.23 13.81 83.92 14.23L83.79 14.10L83.78 14.09Q95.85 25.28 103.69 34.53L103.79 34.64L103.74 34.58Q103.52 32.23 103.52 29.80L103.57 29.85L103.54 29.81Q103.56 22.61 106.08 16.40L106.00 16.32L106.05 16.37Q108.41 15.88 110.01 15.19L109.85 15.04L109.93 15.12Q106.58 21.25 106.28 28.40L106.29 28.42L106.35 28.47Q106.09 35.87 109.06 42.04L108.88 41.85L108.99 41.97Q108.37 41.84 107.95 41.65L107.94 41.64L107.89 41.59Q103.48 37.79 98.27 32.23L98.21 32.18ZM111.59 45.14L111.58 45.13L111.50 45.04Q111.98 45.22 112.39 45.41L112.43 45.44L113.37 45.89L113.42 45.94Q108.12 38.85 108.12 29.48L108.14 29.50L108.13 29.50Q108.17 22.30 111.48 16.06L111.57 16.15L111.56 16.14Q110.75 16.20 109.34 16.81L109.39 16.86L109.38 16.85Q109.75 16.00 110.59 14.44L110.66 14.52L110.63 14.48Q108.20 15.41 105.77 15.98L105.63 15.85L105.77 15.98Q103.00 22.31 103.00 29.74L103.13 29.86L103.01 29.75Q103.11 31.71 103.30 33.69L103.31 33.70L103.39 33.78Q98.69 28.05 93.93 23.44L93.96 23.48L83.83 13.72L83.80 13.69Q83.27 13.43 82.05 12.86L82.05 12.85L81.99 12.80Q86.89 20.55 86.89 29.65L86.97 29.73L86.93 29.70Q86.84 36.72 83.76 42.74L83.80 42.77L83.82 42.80Q84.18 42.74 85.82 42.13L85.83 42.14L85.82 42.14Q85.46 42.88 84.63 44.36L84.55 44.29L84.59 44.33Q86.00 43.87 89.46 43.07L89.40 43.01L89.37 42.98Q91.81 36.97 91.81 29.78L91.81 29.77L91.80 29.76Q91.67 27.54 91.44 25.40L91.56 25.52L91.52 25.48Q102.94 38.24 111.55 45.09Z"/></svg>